# xmcd
#
# Track frame offsets: 
#        150
#        9395
#        20232
#        34016
#        44013
#        52378
#        65124
#        74380
#        82339
#        91283
#        100977
#        110285
#        119362
#        128908
#        140890
#        150905
#        161687
#        169870
#        181252
#        191662
#        209448
#        231111
#        250977
#        273581
#        287508
#
# Disc length: 4083 seconds
#
# Revision: 0
# Processed by: cddbd v1.5.2PL0 Copyright (c) Steve Scherf et al.
# Submitted via: ExactAudioCopy v1.0b3
#
DISCID=7d0ff119
DTITLE=Johnny Cash - Just One More - CD 1
DYEAR=1900
DGENRE=
TTITLE0=Blue Train
TTITLE1=(I Heard That) Lonesome Whistle
TTITLE2=Don'T Take Your Guns To Town
TTITLE3=Ballad Of A Teenage Queen
TTITLE4=Guess Things Happen That Way
TTITLE5=Folsom Prison Blues
TTITLE6=I Got Stripes
TTITLE7=Five Feet High And Rising
TTITLE8=Honly Tonk Girl
TTITLE9=I Couldn'T Keep From Crying
TTITLE10=I Feel Better All Over
TTITLE11=I Will Miss You When You Go
TTITLE12=I'D Just Be Fool Enough (To Fall)
TTITLE13=I'M So Lonesome I Could Cry
TTITLE14=Just One More
TTITLE15=My Shoes Keep Walking Back To You
TTITLE16=Time Changes Everything
TTITLE17=Transfusion Blues
TTITLE18=Why Do You Punish Me (For Loving You)
TTITLE19=Boss Jack
TTITLE20=Dorraine Of Ponchartrain
TTITLE21=Going To Memphis
TTITLE22=Loading Coal
TTITLE23=Lumberjack
TTITLE24=Old Doc Brown
EXTD=
EXTT0=
EXTT1=
EXTT2=
EXTT3=
EXTT4=
EXTT5=
EXTT6=
EXTT7=
EXTT8=
EXTT9=
EXTT10=
EXTT11=
EXTT12=
EXTT13=
EXTT14=
EXTT15=
EXTT16=
EXTT17=
EXTT18=
EXTT19=
EXTT20=
EXTT21=
EXTT22=
EXTT23=
EXTT24=
PLAYORDER=
